<svg id="Layer_1" data-name="Layer 1" xmlns="http://www.w3.org/2000/svg" xmlns:xlink="http://www.w3.org/1999/xlink" viewBox="0 0 2317.05 2194.23"><defs><style>.cls-1{fill:url(#linear-gradient);}.cls-2{fill:url(#linear-gradient-2);}.cls-3{fill:#2fccd3;}</style><linearGradient id="linear-gradient" x1="1539.92" y1="973.57" x2="1524.59" y2="2609" gradientUnits="userSpaceOnUse"><stop offset="0" stop-color="#ffb703"/><stop offset="0.04" stop-color="#f6b103"/><stop offset="0.35" stop-color="#b58305"/><stop offset="0.61" stop-color="#866107"/><stop offset="0.81" stop-color="#694d08"/><stop offset="0.93" stop-color="#5e4508"/></linearGradient><linearGradient id="linear-gradient-2" x1="909.84" y1="1720.97" x2="965.03" y2="82.61" gradientUnits="userSpaceOnUse"><stop offset="0" stop-color="#053949"/><stop offset="0.23" stop-color="#053443"/><stop offset="0.54" stop-color="#032732"/><stop offset="0.89" stop-color="#011215"/><stop offset="0.96" stop-color="#010d0f"/></linearGradient></defs><title>Logo_ChristosGf</title><path class="cls-1" d="M2386.93,1075.62c-14-106.38-37.74-208.93-99.49-300.22C2226.3,685,2145,627.74,2025.73,633.57c-40.5,2-81.23.33-121.9.33-33.14,0-32.82,0-32.91,32.72-.13,51.86,1.86,103.72-3.12,155.57-6.66,69.13-14.18,137.79-41.18,203.17-32,77.34-90.65,127.26-172.34,152-64.52,19.57-131.83,25.24-199.18,26.93-88.88,2.17-177.8,2.94-266.69,3.61q-90.36.64-180.72.34-30.39-.09-60.79-.24a266.77,266.77,0,0,0-34,2,289.24,289.24,0,0,0-32,5.73c-3.69.89-7.36,1.82-11,2.8-39.6,10.7-73,27-100.17,48-58.12,44.92-87.82,111.84-89.2,194-3,179.89-1,359.84-1.06,539.76a114.62,114.62,0,0,0,4.53,32.41c23.82,83.54,93.38,126.5,163.72,168.73,30.09,18.06,65.52,21.31,98.79,30.08,36.74,9.69,74,18.89,111.67,23.58,88.86,11.07,178,17.82,267.88,9.82,84.1-7.52,167.49-17.76,249.14-39.35,12-3.19,21.31-10.18,32.82-14,53.43-17.57,103.9-39.87,143.11-81.42,26-27.48,39.93-57.28,39.51-94.54q-1.29-119.57.2-239.14c.25-19.32-5.6-24.78-25.91-24.69-161,.77-322,.43-483.07.43-50,0-48.93,0-50.31-47-.64-21.28,6.4-27.44,28.51-27.29,131.9.86,263.77.43,395.66.43h190.92c63.62,0,127.27.34,190.89-.09,59.34-.4,116-13.28,162.31-49.22,56.38-43.76,103.6-95,130.42-162.14,20.67-51.79,39.92-103.68,48.86-158.33C2392.94,1244.68,2398.15,1160.87,2386.93,1075.62Zm-828.7,829.61c52.85.25,94.15,41.19,94.19,93.35,0,55-47,98.41-106.41,98.29-54.71-.13-95.12-39-95.31-91.67C1450.47,1949.21,1498.08,1905,1558.23,1905.23Z" transform="translate(-75.99 -74.19)"/><path class="cls-2" d="M1684.43,179.77c-100.87-66-216.73-89.27-335.77-100-113.34-10.24-226.4-6.5-338.85,12.91C930.25,106.38,853,126.5,782.44,165,716.25,201,674.78,250.61,679.12,329.45c3.89,70.75,1.57,141.86.38,212.79-.35,20.12,5.66,26,27,25.92,160.25-.83,320.5-.46,480.79-.46,54.16,0,53.13,0,54.52,52,.51,19.78-5.89,24.35-25.82,24.23-130.35-.83-260.7-.43-391.06-.46-123.47,0-246.92.22-370.36-.18a407,407,0,0,0-77.63,7.23c-43.85,8.38-86.22,23.22-119.81,51-104.93,87-149.55,203.72-170,330.55q-25.5,158.39,7.43,316c17.07,82.37,45.65,160.11,95.44,229.78,60.95,85.28,142.51,134.38,254.31,130.58,42.12-1.44,84.32-.25,126.5-.28,31.47,0,32-.09,30-30.54-7.46-108.41-4.89-216.38,18.52-323,14.46-65.84,42.85-125.15,105.18-163.42a271.89,271.89,0,0,1,44.59-22c34.49-13.41,71.11-20.4,108.24-24.69,5.69-.68,11.38-1.26,17.1-1.81,9.06-.86,18.16-1.66,27.26-2.33,32.85-2.55,65.77-4,98.72-4.79,45.29-1.13,90.62-1.1,135.95-1.07,116.53.06,233.16,2.42,349.62-.76,111.84-3.07,195.9-54.78,252.19-147.14,27.07-44.47,33.79-93.69,34-143.67.68-155.79-1.31-311.6.94-467.39C1794.28,289.89,1755.83,226.47,1684.43,179.77ZM912.69,436.26c-54.1-.28-95.18-39.77-95.92-92.21-.77-54.83,48.8-100.13,108.75-99.33,55.13.7,92.49,38.51,92.26,93.41C1017.55,395.81,973.93,436.57,912.69,436.26Z" transform="translate(-75.99 -74.19)"/><path class="cls-3" d="M1686.3,1304.79c-12.22,38.76-33,73.32-58.76,106-132.77,182.28-459.12,202.09-608.28,36.8-71.46-65.72-106.92-152.47-106.34-237.51a266.77,266.77,0,0,1,34-2q30.38.18,60.79.24c-1.19,39.53,7,79,25,118.47,48,70.77,111.29,124.84,206.19,143.14,128.1,24.78,247.07-18.49,318.76-114.78,6.72-9.11,13.79-18,20.74-27q5.64-18.58,11.25-37.16c-81.53-.37-163.08-1.41-244.7-.74-25,.18-41.09-2.27-38.32-29.59,2.15-22-2.67-45.51,35.52-45.14q132.9,1.14,265.69,1.78C1715.39,1213.28,1714.85,1213.19,1686.3,1304.79Z" transform="translate(-75.99 -74.19)"/><path class="cls-3" d="M1642.1,1583.85c-35,26.83-72.56,41.4-108.72,57.93-215.8,102-538.94,27.87-663.47-152.44C813.33,1423,780,1345.64,769.83,1266.58c27.17-21,60.57-37.29,100.17-48,.65,49,11.93,98.22,32.53,147.5,66.13,110.46,160.7,190.25,303.24,220.4,115.76,24.5,223.07,3.19,326.87-41.86C1587,1517.86,1603.26,1567.41,1642.1,1583.85Z" transform="translate(-75.99 -74.19)"/><path class="cls-3" d="M1020.32,1136.69c-33,.8-65.87,2.24-98.72,4.79,14.43-58.3,46.93-112.61,97.47-154.83,98-120.52,343.13-153.58,482.32-65-33.69,40.82-70.72,57.26-133.86,41.13-116.62-29.69-243.31,19.9-309.53,109.45-8.46,11.53-17.56,22.69-26.33,34.16A313.64,313.64,0,0,0,1020.32,1136.69Z" transform="translate(-75.99 -74.19)"/><path class="cls-3" d="M877.24,1145.62c-37.13,4.29-73.75,11.28-108.24,24.69,9.06-81,42.53-160,100.46-227.21,111.38-141.28,269-201.54,460.43-198.72,93.84,1.41,180.92,26.38,261.71,69.09,25.13,13.31,33.36,20.83,6.42,42.23-37.35,29.65-63.45,38.21-117.27,15-200-86.17-440.5-14.26-551.69,155.9-6.95,10.71-14.21,21.41-21.29,32.11A367,367,0,0,0,877.24,1145.62Z" transform="translate(-75.99 -74.19)"/></svg>